HIERARCHY
ROOT root
{
	OFFSET 0.000000 0.000000 0.000000
	CHANNELS 6 Xposition Yposition Zposition Zrotation Yrotation Xrotation
	JOINT lhip
	{
		OFFSET 0.058581 -0.082280 -0.017664
		CHANNELS 3 Zrotation Yrotation Xrotation
		JOINT lknee
		{
			OFFSET 0.043451 -0.386469 0.008037
			CHANNELS 3 Zrotation Yrotation Xrotation
			JOINT lankle
			{
				OFFSET -0.014790 -0.426874 -0.037428
				CHANNELS 3 Zrotation Yrotation Xrotation
				JOINT ltoe
				{
					OFFSET 0.041054 -0.060286 0.122042
					CHANNELS 3 Zrotation Yrotation Xrotation
					End Site
					{
						OFFSET 0.000000 0.000000 0.000000
					}
				}
			}
		}
	}
	JOINT rhip
	{
		OFFSET -0.060310 -0.090513 -0.013543
		CHANNELS 3 Zrotation Yrotation Xrotation
		JOINT rknee
		{
			OFFSET -0.043257 -0.383688 -0.004843
			CHANNELS 3 Zrotation Yrotation Xrotation
			JOINT rankle
			{
				OFFSET 0.019056 -0.420046 -0.034562
				CHANNELS 3 Zrotation Yrotation Xrotation
				JOINT rtoe
				{
					OFFSET -0.034840 -0.062106 0.130323
					CHANNELS 3 Zrotation Yrotation Xrotation
					End Site
					{
						OFFSET 0.000000 0.000000 0.000000
					}
				}
			}
		}
	}
	JOINT lowerback
	{
		OFFSET 0.004439 0.124404 -0.038385
		CHANNELS 3 Zrotation Yrotation Xrotation
		JOINT upperback
		{
			OFFSET 0.004488 0.137956 0.026820
			CHANNELS 3 Zrotation Yrotation Xrotation
			JOINT chest
			{
				OFFSET -0.002265 0.056032 0.002855
				CHANNELS 3 Zrotation Yrotation Xrotation
				JOINT lowerneck
				{
					OFFSET -0.013390 0.211636 -0.033468
					CHANNELS 3 Zrotation Yrotation Xrotation
					JOINT upperneck
					{
						OFFSET 0.010113 0.088937 0.050410
						CHANNELS 3 Zrotation Yrotation Xrotation
						End Site
						{
							OFFSET 0.000000 0.000000 0.000000
						}
					}
				}
				JOINT lclavicle
				{
					OFFSET 0.071702 0.114000 -0.018898
					CHANNELS 3 Zrotation Yrotation Xrotation
					JOINT lshoulder
					{
						OFFSET 0.122921 0.045205 -0.019046
						CHANNELS 3 Zrotation Yrotation Xrotation
						JOINT lelbow
						{
							OFFSET 0.255332 -0.015649 -0.022946
							CHANNELS 3 Zrotation Yrotation Xrotation
							JOINT lwrist
							{
								OFFSET 0.265709 0.012698 -0.007375
								CHANNELS 3 Zrotation Yrotation Xrotation
								End Site
								{
									OFFSET 0.000000 0.000000 0.000000
								}
							}
						}
					}
				}
				JOINT rclavicle
				{
					OFFSET -0.082954 0.112472 -0.023707
					CHANNELS 3 Zrotation Yrotation Xrotation
					JOINT rshoulder
					{
						OFFSET -0.113228 0.046853 -0.008472
						CHANNELS 3 Zrotation Yrotation Xrotation
						JOINT relbow
						{
							OFFSET -0.260127 -0.014369 -0.031269
							CHANNELS 3 Zrotation Yrotation Xrotation
							JOINT rwrist
							{
								OFFSET -0.269108 0.006794 -0.006027
								CHANNELS 3 Zrotation Yrotation Xrotation
								End Site
								{
									OFFSET 0.000000 0.000000 0.000000
								}
							}
						}
					}
				}
			}
		}
	}
}
MOTION
Frames: 11
Frame Time: 0.033333
-0.787544 0.257031 0.986616 88.425576 1.310177 89.887071 5.481993 1.476158 -15.258275 -7.484799 2.715289 24.523555 2.401646 10.279615 -13.546847 0.000000 -0.000000 0.000000 -3.549514 -1.109374 -17.567508 3.773518 -3.169938 26.877385 2.763249 -3.440411 -12.007482 0.000000 -0.000000 0.000000 -0.412195 0.645707 20.407667 2.499294 -2.936717 0.908041 0.375422 -1.503312 5.569959 1.532041 0.021999 6.848156 2.506444 -5.681513 12.878996 -18.385358 -0.492127 2.345503 -62.241881 -13.310231 10.545374 7.727461 -23.040373 0.474268 7.937095 -4.612518 -18.939973 20.045219 2.958867 1.630370 59.828897 11.154941 12.715302 -14.233158 23.791032 -4.198013 0.215753 3.202593 -9.306785 
-0.789470 0.257574 0.985641 87.939363 1.235476 89.858147 5.416097 1.160233 -15.494153 -7.282855 3.330641 24.876883 2.639877 10.481487 -13.632844 0.000000 -0.000000 0.000000 -3.617902 -0.992104 -18.031001 3.702411 -3.117862 27.381463 2.747533 -3.237275 -12.027680 0.000000 -0.000000 0.000000 -0.330421 0.802973 20.842967 2.475922 -2.822979 0.868384 0.332438 -1.389987 5.620648 1.280078 0.550421 7.043473 2.333723 -5.305817 13.097868 -18.188674 -0.476312 2.269116 -62.130327 -13.240116 10.469764 7.741046 -22.740720 0.290214 7.938946 -4.667970 -19.057086 20.095229 2.888192 1.719250 59.863522 11.134408 12.834361 -14.084813 23.756918 -4.011890 0.179956 3.247213 -9.301929 
-0.791585 0.257860 0.984412 87.711966 1.156891 89.890254 5.337719 1.092189 -15.921359 -7.264875 3.522063 25.366882 2.761058 10.694094 -13.735969 0.000000 -0.000000 0.000000 -3.704701 -0.902407 -18.570763 3.701389 -3.046124 27.955681 2.734790 -3.260307 -12.134360 0.000000 -0.000000 0.000000 -0.268303 0.792689 21.200970 2.445166 -2.726726 0.820429 0.297302 -1.346041 5.725944 1.086689 0.932111 7.096354 2.129003 -5.006899 13.205291 -18.125127 -0.386350 2.226287 -61.972807 -13.117520 10.339078 7.634257 -22.499763 0.219428 7.885283 -4.578613 -19.076995 20.133774 2.838751 1.749251 59.900602 11.078648 12.940968 -13.923403 23.633786 -3.853929 0.264369 3.240900 -9.206706 
-0.793956 0.257828 0.982487 87.596009 1.082610 89.851628 5.284851 1.085885 -16.483880 -7.280003 3.639137 26.213024 2.866003 10.869766 -14.005917 0.000000 -0.000000 0.000000 -3.791350 -0.763713 -19.184383 3.694732 -3.053169 28.840050 2.677972 -3.331060 -12.421203 0.000000 -0.000000 0.000000 -0.191618 0.716700 21.722793 2.408902 -2.626736 0.717287 0.250457 -1.339311 5.859737 0.952260 1.289552 7.065049 1.916585 -4.714091 13.347360 -18.175310 -0.234914 2.217298 -61.879430 -12.849262 10.172343 7.465757 -22.037111 0.229878 7.815271 -4.550913 -19.051064 20.205393 2.699233 1.741722 59.907860 10.920090 13.000908 -13.648533 23.413725 -3.588056 0.341268 3.228590 -9.115105 
-0.795414 0.257606 0.981013 87.547754 1.050864 89.814204 5.280639 1.082482 -16.898266 -7.300722 3.687273 26.886142 2.944290 10.992674 -14.232134 0.000000 -0.000000 0.000000 -3.808082 -0.671503 -19.610465 3.672464 -3.075149 29.513936 2.611845 -3.389029 -12.670679 0.000000 -0.000000 0.000000 -0.162471 0.672410 22.069243 2.389342 -2.563197 0.618943 0.223922 -1.336010 5.938211 0.915865 1.454322 7.044700 1.835524 -4.544037 13.394545 -18.228488 -0.104751 2.230387 -61.913914 -12.647776 10.082002 7.351805 -21.718402 0.370685 7.821254 -4.533161 -18.917386 20.217115 2.584601 1.749758 59.925138 10.800741 12.992171 -13.451998 23.267778 -3.407775 0.339601 3.215661 -9.126696 
-0.797501 0.257072 0.978601 87.473100 1.013153 89.754660 5.329323 1.077075 -17.525959 -7.338754 3.836791 27.959032 3.052195 11.137858 -14.638575 0.000000 -0.000000 0.000000 -3.823838 -0.532053 -20.255983 3.663105 -3.119603 30.560991 2.503169 -3.473129 -13.080081 0.000000 -0.000000 0.000000 -0.170329 0.647271 22.568683 2.373797 -2.454322 0.497402 0.208178 -1.330903 6.030230 0.901170 1.605756 6.992280 1.764524 -4.357144 13.322759 -18.372947 0.077228 2.236962 -61.957420 -12.326796 9.999449 7.142774 -21.311462 0.647082 7.776110 -4.549646 -18.713722 20.276153 2.414348 1.759833 59.869848 10.605371 12.930399 -13.192360 23.070707 -3.177764 0.328389 3.231165 -9.087876 
-0.799542 0.256244 0.975810 87.463756 1.032171 89.643404 5.492840 1.062876 -18.170266 -7.412940 3.996383 29.173680 3.097895 11.235357 -15.116756 0.000000 -0.000000 0.000000 -3.793273 -0.392180 -20.866705 3.678285 -3.228217 31.680705 2.365819 -3.586341 -13.512323 0.000000 -0.000000 0.000000 -0.179371 0.634171 23.085660 2.407867 -2.373179 0.499362 0.214076 -1.339626 6.095231 0.930614 1.712197 6.870152 1.685750 -4.244658 13.212698 -18.602500 0.193171 2.285147 -62.000122 -11.967361 9.948803 6.918110 -20.939465 0.996512 7.558173 -4.569433 -18.520487 20.397774 2.286813 1.780645 59.675806 10.376465 12.815116 -12.946248 22.920212 -2.989403 0.368815 3.236054 -9.121023 
-0.801655 0.255286 0.972796 87.479424 1.068806 89.508354 5.652028 1.062254 -18.809564 -7.507671 4.021075 30.408466 3.188388 11.428739 -15.559763 0.000000 -0.000000 0.000000 -3.749820 -0.211114 -21.454213 3.704344 -3.353697 32.788321 2.234923 -3.767873 -13.921493 0.000000 -0.000000 0.000000 -0.197056 0.602819 23.644879 2.447427 -2.278139 0.513803 0.218603 -1.362081 6.154301 0.970795 1.778712 6.746659 1.609414 -4.182609 13.115243 -18.817152 0.323502 2.339476 -62.084159 -11.578714 9.941849 6.638086 -20.625154 1.460630 7.319363 -4.553383 -18.339767 20.489778 2.161105 1.834362 59.509327 10.139220 12.705032 -12.755585 22.783917 -2.887845 0.383463 3.219568 -9.208450 
-0.803800 0.254183 0.969853 87.511444 1.099414 89.417377 5.766721 1.051595 -19.428126 -7.515973 4.042901 31.497196 3.272126 11.595791 -15.915327 0.000000 -0.000000 0.000000 -3.693483 -0.095666 -22.017386 3.703002 -3.465009 33.750506 2.109578 -3.901275 -14.308357 0.000000 -0.000000 0.000000 -0.197424 0.583555 24.165992 2.467207 -2.201045 0.522799 0.214188 -1.378872 6.218706 0.977597 1.799596 6.663878 1.550516 -4.136963 12.976614 -19.065242 0.458926 2.381976 -62.164786 -11.197648 9.956508 6.313128 -20.327248 1.951932 7.068236 -4.508111 -18.155182 20.581818 2.027050 1.887475 59.385267 9.887388 12.569285 -12.598689 22.616585 -2.883818 0.373845 3.187093 -9.301137 
-0.806181 0.252617 0.967183 87.643535 1.126322 89.277485 5.874579 0.998647 -19.924617 -7.442732 4.059364 32.392258 3.293104 11.646389 -16.158122 0.000000 -0.000000 0.000000 -3.611658 -0.046291 -22.417081 3.673375 -3.595527 34.508487 1.988383 -4.037844 -14.605791 0.000000 -0.000000 0.000000 -0.169870 0.576936 24.758086 2.487475 -2.185609 0.642712 0.204767 -1.395467 6.207566 0.944797 1.699999 6.701593 1.547595 -4.219248 12.901751 -19.425528 0.479201 2.568415 -62.316057 -10.826628 9.966021 6.027281 -19.838617 2.506709 6.768603 -4.474193 -17.853503 20.751026 1.983859 2.066593 59.227176 9.657782 12.300885 -12.416962 22.121171 -2.839325 0.350443 3.164976 -9.226042 
-0.807940 0.251351 0.966038 87.781919 1.117706 89.174359 5.899318 0.919563 -20.185411 -7.374923 4.005751 32.821688 3.299091 11.679075 -16.224867 0.000000 -0.000000 0.000000 -3.563895 -0.033124 -22.601651 3.650058 -3.678718 34.862565 1.933381 -4.144952 -14.690010 0.000000 -0.000000 0.000000 -0.151939 0.594403 25.163836 2.493861 -2.183396 0.684915 0.204335 -1.395008 6.168108 0.882973 1.509274 6.873406 1.628869 -4.436629 12.995503 -19.611838 0.492184 2.791838 -62.618333 -10.622186 9.983701 5.899417 -19.449732 3.042031 6.357465 -4.483649 -17.554417 20.818882 1.922941 2.266281 59.202175 9.486388 12.039603 -12.284829 21.648560 -2.559485 0.517060 3.136835 -8.971909 
